<?xml version="1.0" encoding="UTF-8"?>
<svg width="163px" height="92px" viewBox="0 0 163 92" version="1.1" xmlns="http://www.w3.org/2000/svg" xmlns:xlink="http://www.w3.org/1999/xlink">
    <!-- Generator: Sketch 43.1 (39012) - http://www.bohemiancoding.com/sketch -->
    <title>Keyboard label</title>
    <desc>Created with Sketch.</desc>
    <defs></defs>
    <g id="Main" stroke="none" stroke-width="1" fill="none" fill-rule="evenodd">
        <g id="Keyboard-rasterized" transform="translate(-63.000000, -51.000000)">
            <g id="keyboard" transform="translate(45.000000, 34.000000)">
                <g id="Keyboard-label" transform="translate(18.000000, 17.000000)">
                    <path d="M0,8.00345689 C0,3.5832697 3.57524125,0 7.99986275,0 L155.000137,0 C159.418339,0 163,3.57827291 163,8.00345689 L163,83.9965431 C163,88.4167303 159.418269,92 154.998031,92 L75.4456512,92 L8.00257972,92 C3.58287698,92 0,88.4217271 0,83.9965431 L0,8.00345689 Z" id="Rectangle-6" fill="#F3D7D7"></path>
                    <path d="M87.15,69 L87.15,50.8125 L88.35,50.8125 L88.35,58.7375 C88.9000027,58.004163 89.5374964,57.4250021 90.2625,57 C90.9875036,56.5749979 91.8041621,56.3625 92.7125,56.3625 C94.2375076,56.3625 95.4270791,56.8895781 96.28125,57.94375 C97.1354209,58.9979219 97.5625,60.5833228 97.5625,62.7 C97.5625,63.6083379 97.4437512,64.4562461 97.20625,65.24375 C96.9687488,66.0312539 96.6187523,66.7145804 96.15625,67.29375 C95.6937477,67.8729196 95.1270867,68.329165 94.45625,68.6625 C93.7854133,68.995835 93.0125044,69.1625 92.1375,69.1625 C91.270829,69.1625 90.5250031,68.9937517 89.9,68.65625 C89.2749969,68.3187483 88.7375022,67.8208366 88.2875,67.1625 L88.2125,68.6875 C88.1874999,68.8958344 88.075001,69 87.875,69 L87.15,69 Z M92.375,57.3125 C91.5499959,57.3125 90.80417,57.5249979 90.1375,57.95 C89.47083,58.3750021 88.8750026,58.9666629 88.35,59.725 L88.35,66.2875 C88.8250024,67.0041703 89.3499971,67.5062486 89.925,67.79375 C90.5000029,68.0812514 91.1624962,68.225 91.9125,68.225 C92.645837,68.225 93.2874972,68.091668 93.8375,67.825 C94.3875027,67.558332 94.8479148,67.1812524 95.21875,66.69375 C95.5895852,66.2062476 95.8687491,65.6229201 96.05625,64.94375 C96.2437509,64.2645799 96.3375,63.5166708 96.3375,62.7 C96.3375,60.8499908 95.9958367,59.4895877 95.3125,58.61875 C94.6291632,57.7479123 93.6500064,57.3125 92.375,57.3125 Z M107.545544,56.3625 C108.437215,56.3625 109.235123,56.5145818 109.939294,56.81875 C110.643464,57.1229182 111.237208,57.5541639 111.720544,58.1125 C112.203879,58.6708361 112.572626,59.3437461 112.826794,60.13125 C113.080961,60.9187539 113.208044,61.7999951 113.208044,62.775 C113.208044,63.7500049 113.080961,64.6291628 112.826794,65.4125 C112.572626,66.1958372 112.203879,66.8666639 111.720544,67.425 C111.237208,67.9833361 110.643464,68.4124985 109.939294,68.7125 C109.235123,69.0125015 108.437215,69.1625 107.545544,69.1625 C106.653872,69.1625 105.855964,69.0125015 105.151794,68.7125 C104.447623,68.4124985 103.851796,67.9833361 103.364294,67.425 C102.876791,66.8666639 102.505961,66.1958372 102.251794,65.4125 C101.997626,64.6291628 101.870544,63.7500049 101.870544,62.775 C101.870544,61.7999951 101.997626,60.9187539 102.251794,60.13125 C102.505961,59.3437461 102.876791,58.6708361 103.364294,58.1125 C103.851796,57.5541639 104.447623,57.1229182 105.151794,56.81875 C105.855964,56.5145818 106.653872,56.3625 107.545544,56.3625 Z M107.545544,68.225 C108.287214,68.225 108.935124,68.0979179 109.489294,67.84375 C110.043463,67.5895821 110.505958,67.2250024 110.876794,66.75 C111.247629,66.2749976 111.524709,65.7020867 111.708044,65.03125 C111.891378,64.3604133 111.983044,63.6083375 111.983044,62.775 C111.983044,61.9499959 111.891378,61.2000034 111.708044,60.525 C111.524709,59.8499966 111.247629,59.2729191 110.876794,58.79375 C110.505958,58.3145809 110.043463,57.9458346 109.489294,57.6875 C108.935124,57.4291654 108.287214,57.3 107.545544,57.3 C106.803873,57.3 106.155963,57.4291654 105.601794,57.6875 C105.047624,57.9458346 104.585129,58.3145809 104.214294,58.79375 C103.843458,59.2729191 103.564294,59.8499966 103.376794,60.525 C103.189293,61.2000034 103.095544,61.9499959 103.095544,62.775 C103.095544,63.6083375 103.189293,64.3604133 103.376794,65.03125 C103.564294,65.7020867 103.843458,66.2749976 104.214294,66.75 C104.585129,67.2250024 105.047624,67.5895821 105.601794,67.84375 C106.155963,68.0979179 106.803873,68.225 107.545544,68.225 Z M126.403587,69 C126.153586,69 125.999421,68.8833345 125.941087,68.65 L125.766087,67.0625 C125.424419,67.395835 125.084839,67.695832 124.747337,67.9625 C124.409835,68.229168 124.057756,68.4541658 123.691087,68.6375 C123.324419,68.8208343 122.928589,68.9604162 122.503587,69.05625 C122.078585,69.1520838 121.611923,69.2 121.103587,69.2 C120.678585,69.2 120.266089,69.1375006 119.866087,69.0125 C119.466085,68.8874994 119.111922,68.6958346 118.803587,68.4375 C118.495252,68.1791654 118.247338,67.8479187 118.059837,67.44375 C117.872336,67.0395813 117.778587,66.5541695 117.778587,65.9875 C117.778587,65.4624974 117.928586,64.9750023 118.228587,64.525 C118.528589,64.0749977 118.997334,63.683335 119.634837,63.35 C120.27234,63.016665 121.093165,62.750001 122.097337,62.55 C123.101509,62.349999 124.307747,62.2333335 125.716087,62.2 L125.716087,60.9 C125.716087,59.7499943 125.468173,58.8645864 124.972337,58.24375 C124.476501,57.6229136 123.741092,57.3125 122.766087,57.3125 C122.166084,57.3125 121.655672,57.3958325 121.234837,57.5625 C120.814002,57.7291675 120.457755,57.912499 120.166087,58.1125 C119.874419,58.312501 119.636921,58.4958325 119.453587,58.6625 C119.270253,58.8291675 119.116088,58.9125 118.991087,58.9125 C118.82442,58.9125 118.699421,58.8375008 118.616087,58.6875 L118.403587,58.325 C119.05359,57.6749968 119.736917,57.183335 120.453587,56.85 C121.170257,56.516665 121.982749,56.35 122.891087,56.35 C123.557757,56.35 124.141085,56.4562489 124.641087,56.66875 C125.14109,56.8812511 125.555669,57.1854147 125.884837,57.58125 C126.214005,57.9770853 126.46192,58.4562472 126.628587,59.01875 C126.795255,59.5812528 126.878587,60.2083299 126.878587,60.9 L126.878587,69 L126.403587,69 Z M121.403587,68.3375 C121.886923,68.3375 122.330668,68.2854172 122.734837,68.18125 C123.139006,68.0770828 123.514002,67.9312509 123.859837,67.74375 C124.205672,67.5562491 124.528586,67.3333346 124.828587,67.075 C125.128589,66.8166654 125.424419,66.5375015 125.716087,66.2375 L125.716087,63 C124.532748,63.0333335 123.514008,63.1229159 122.659837,63.26875 C121.805666,63.4145841 121.101506,63.6124988 120.547337,63.8625 C119.993168,64.1125013 119.584838,64.4104149 119.322337,64.75625 C119.059836,65.1020851 118.928587,65.4958311 118.928587,65.9375 C118.928587,66.3541687 118.997336,66.7145818 119.134837,67.01875 C119.272338,67.3229182 119.453586,67.5729157 119.678587,67.76875 C119.903588,67.9645843 120.166086,68.1083329 120.466087,68.2 C120.766089,68.2916671 121.078585,68.3375 121.403587,68.3375 Z M132.761631,69 L132.761631,56.5625 L133.386631,56.5625 C133.528298,56.5625 133.63038,56.5916664 133.692881,56.65 C133.755381,56.7083336 133.790797,56.8083326 133.799131,56.95 L133.899131,59.575 C134.299133,58.5666616 134.832461,57.7770862 135.499131,57.20625 C136.165801,56.6354138 136.986626,56.35 137.961631,56.35 C138.336632,56.35 138.682462,56.3895829 138.999131,56.46875 C139.315799,56.5479171 139.615796,56.6624992 139.899131,56.8125 L139.736631,57.6375 C139.71163,57.770834 139.628298,57.8375 139.486631,57.8375 C139.43663,57.8375 139.365798,57.8208335 139.274131,57.7875 C139.182463,57.7541665 139.067881,57.7166669 138.930381,57.675 C138.79288,57.6333331 138.624132,57.5958335 138.424131,57.5625 C138.22413,57.5291665 137.994965,57.5125 137.736631,57.5125 C136.794959,57.5125 136.02205,57.8041638 135.417881,58.3875 C134.813711,58.9708362 134.324132,59.8124945 133.949131,60.9125 L133.949131,69 L132.761631,69 Z M153.632174,69 C153.42384,69 153.303008,68.8916677 153.269674,68.675 L153.144674,66.7125 C152.594671,67.4625037 151.950928,68.0583311 151.213424,68.5 C150.47592,68.9416689 149.648845,69.1625 148.732174,69.1625 C147.207166,69.1625 146.017595,68.6333386 145.163424,67.575 C144.309253,66.5166614 143.882174,64.9291773 143.882174,62.8125 C143.882174,61.9041621 144.000923,61.0562539 144.238424,60.26875 C144.475925,59.4812461 144.825922,58.7979196 145.288424,58.21875 C145.750926,57.6395804 146.317587,57.183335 146.988424,56.85 C147.659261,56.516665 148.43217,56.35 149.307174,56.35 C150.148845,56.35 150.878004,56.5062484 151.494674,56.81875 C152.111344,57.1312516 152.644672,57.587497 153.094674,58.1875 L153.094674,50.8125 L154.294674,50.8125 L154.294674,69 L153.632174,69 Z M149.069674,68.2 C149.894678,68.2 150.640504,67.9875021 151.307174,67.5625 C151.973844,67.1374979 152.569671,66.5458371 153.094674,65.7875 L153.094674,59.225 C152.611338,58.5166631 152.080094,58.0166681 151.500924,57.725 C150.921755,57.4333319 150.265511,57.2875 149.532174,57.2875 C148.798837,57.2875 148.157177,57.420832 147.607174,57.6875 C147.057171,57.954168 146.596759,58.3312476 146.225924,58.81875 C145.855089,59.3062524 145.575925,59.8895799 145.388424,60.56875 C145.200923,61.2479201 145.107174,61.9958292 145.107174,62.8125 C145.107174,64.6625092 145.448837,66.0229123 146.132174,66.89375 C146.815511,67.7645877 147.794668,68.2 149.069674,68.2 Z" id="board" fill="#8A8A8A"></path>
                    <path d="M103.948,43.978 L89.626,43.978 L99.306,27.61 L91.518,27.61 L91.518,24.97 L103.948,24.97 L94.268,41.338 L103.948,41.338 L103.948,43.978 Z M118.577044,39.38 C118.151708,40.6853399 117.440382,41.7633291 116.443044,42.614 C115.915041,43.0686689 115.335713,43.4096655 114.705044,43.637 C114.074374,43.8643345 113.421714,43.978 112.747044,43.978 C111.925706,43.978 111.111714,43.7946685 110.305044,43.428 C109.923708,43.2373324 109.571712,43.0210012 109.249044,42.779 C108.926375,42.5369988 108.625712,42.2546683 108.347044,41.932 C107.789707,41.2866634 107.360712,40.5570041 107.060044,39.743 C106.759375,38.9289959 106.609044,38.0746711 106.609044,37.18 C106.609044,36.2853289 106.759375,35.4310041 107.060044,34.617 C107.360712,33.8029959 107.797041,33.0660033 108.369044,32.406 C108.92638,31.7899969 109.57904,31.2986685 110.327044,30.932 C111.119047,30.5506648 111.925706,30.36 112.747044,30.36 C113.553714,30.36 114.345706,30.5213317 115.123044,30.844 C115.885714,31.181335 116.538374,31.6433304 117.081044,32.23 C117.667713,32.8313363 118.115042,33.527996 118.423044,34.32 C118.731045,35.112004 118.885044,35.9479956 118.885044,36.828 L118.885044,38.148 L109.337044,38.148 C109.425044,38.6026689 109.575376,39.0243314 109.788044,39.413 C110.000711,39.8016686 110.257375,40.1389986 110.558044,40.425 C110.858712,40.7110014 111.196042,40.9346659 111.570044,41.096 C111.944045,41.2573341 112.336375,41.338 112.747044,41.338 C113.363047,41.338 113.935041,41.1656684 114.463044,40.821 C114.991046,40.4763316 115.409042,39.9960031 115.717044,39.38 L118.577044,39.38 Z M112.747044,33 C112.04304,33 111.40138,33.2346643 110.822044,33.704 C110.242707,34.1733357 109.813712,34.774663 109.535044,35.508 L116.025044,35.508 C115.790376,34.7599963 115.379713,34.1550023 114.793044,33.693 C114.206374,33.2309977 113.524381,33 112.747044,33 Z M133.822087,39.38 C133.396752,40.6853399 132.685425,41.7633291 131.688087,42.614 C131.160084,43.0686689 130.580757,43.4096655 129.950087,43.637 C129.319417,43.8643345 128.666757,43.978 127.992087,43.978 C127.17075,43.978 126.356758,43.7946685 125.550087,43.428 C125.168752,43.2373324 124.816755,43.0210012 124.494087,42.779 C124.171419,42.5369988 123.870755,42.2546683 123.592087,41.932 C123.034751,41.2866634 122.605755,40.5570041 122.305087,39.743 C122.004419,38.9289959 121.854087,38.0746711 121.854087,37.18 C121.854087,36.2853289 122.004419,35.4310041 122.305087,34.617 C122.605755,33.8029959 123.042084,33.0660033 123.614087,32.406 C124.171423,31.7899969 124.824083,31.2986685 125.572087,30.932 C126.364091,30.5506648 127.17075,30.36 127.992087,30.36 C128.798758,30.36 129.59075,30.5213317 130.368087,30.844 C131.130758,31.181335 131.783418,31.6433304 132.326087,32.23 C132.912757,32.8313363 133.360086,33.527996 133.668087,34.32 C133.976089,35.112004 134.130087,35.9479956 134.130087,36.828 L134.130087,38.148 L124.582087,38.148 C124.670087,38.6026689 124.820419,39.0243314 125.033087,39.413 C125.245755,39.8016686 125.502419,40.1389986 125.803087,40.425 C126.103755,40.7110014 126.441085,40.9346659 126.815087,41.096 C127.189089,41.2573341 127.581418,41.338 127.992087,41.338 C128.60809,41.338 129.180084,41.1656684 129.708087,40.821 C130.23609,40.4763316 130.654086,39.9960031 130.962087,39.38 L133.822087,39.38 Z M127.992087,33 C127.288084,33 126.646423,33.2346643 126.067087,33.704 C125.487751,34.1733357 125.058755,34.774663 124.780087,35.508 L131.270087,35.508 C131.035419,34.7599963 130.624757,34.1550023 130.038087,33.693 C129.451417,33.2309977 128.769424,33 127.992087,33 Z M147.725131,32.428 C148.282467,33.0880033 148.711462,33.8213293 149.012131,34.628 C149.312799,35.4346707 149.463131,36.2926621 149.463131,37.202 C149.463131,38.0966711 149.312799,38.9509959 149.012131,39.765 C148.711462,40.5790041 148.282467,41.3086634 147.725131,41.954 C147.431796,42.2766683 147.123799,42.5589988 146.801131,42.801 C146.478462,43.0430012 146.133799,43.2593324 145.767131,43.45 C144.96046,43.8166685 144.146468,44 143.325131,44 C142.489126,44 141.667801,43.8166685 140.861131,43.45 C140.479795,43.2593324 140.127799,43.0393346 139.805131,42.79 L139.805131,48.136 L137.165131,48.136 L137.165131,30.712 L139.805131,30.712 L139.805131,31.592 C140.157132,31.3279987 140.509129,31.1153341 140.861131,30.954 C141.653135,30.5726648 142.47446,30.382 143.325131,30.382 C144.161135,30.382 144.975127,30.5726648 145.767131,30.954 C146.515134,31.3206685 147.167794,31.8119969 147.725131,32.428 Z M143.325131,41.36 C143.809133,41.36 144.260128,41.2500011 144.678131,41.03 C145.096133,40.8099989 145.466462,40.5130019 145.789131,40.139 C146.111799,39.7649981 146.364796,39.3250025 146.548131,38.819 C146.731465,38.3129975 146.823131,37.7740029 146.823131,37.202 C146.823131,36.6299971 146.731465,36.0873359 146.548131,35.574 C146.364796,35.0606641 146.111799,34.6170019 145.789131,34.243 C145.466462,33.8689981 145.096133,33.5720011 144.678131,33.352 C144.260128,33.1319989 143.809133,33.022 143.325131,33.022 C142.841128,33.022 142.386466,33.1319989 141.961131,33.352 C141.535795,33.5720011 141.161799,33.8689981 140.839131,34.243 C140.516462,34.6170019 140.263465,35.0569975 140.080131,35.563 C139.896796,36.0690025 139.805131,36.6079971 139.805131,37.18 L139.805131,37.202 C139.805131,37.7740029 139.896796,38.3129975 140.080131,38.819 C140.263465,39.3250025 140.516462,39.7649981 140.839131,40.139 C141.161799,40.5130019 141.535795,40.8099989 141.961131,41.03 C142.386466,41.2500011 142.841128,41.36 143.325131,41.36 Z" id="Zeep" fill="#FFFFFF"></path>
                    <g id="logo" transform="translate(12.000000, 16.000000)" fill="#FFFFFF">
                        <rect id="Rectangle-7" x="0" y="22.5588235" width="13.8947368" height="36.4411765" rx="6.94736842"></rect>
                        <rect id="Rectangle-7" x="17.3684211" y="10.0735294" width="13.8947368" height="48.9300003" rx="6.94736842"></rect>
                        <rect id="Rectangle-7" x="52.1052632" y="10.0735294" width="13.8947368" height="48.9300003" rx="6.94736842"></rect>
                        <rect id="Rectangle-7" x="34.7368421" y="0" width="13.8947368" height="59" rx="6.94736842"></rect>
                    </g>
                </g>
            </g>
        </g>
    </g>
</svg>